<?xml version="1.0" encoding="utf-8"?>
<!-- Generator: Adobe Illustrator 23.0.5, SVG Export Plug-In . SVG Version: 6.00 Build 0)  -->
<svg version="1.1" id="Слой_1" xmlns="http://www.w3.org/2000/svg" xmlns:xlink="http://www.w3.org/1999/xlink" x="0px" y="0px"
	 viewBox="0 0 2048 2048" style="enable-background:new 0 0 2048 2048;" xml:space="preserve">
<style type="text/css">
	.st0{fill:#FFFFFF;}
	.st1{fill-rule:evenodd;clip-rule:evenodd;}
	.st2{fill-rule:evenodd;clip-rule:evenodd;fill:#FFFFFF;}
	.st3{fill-rule:evenodd;clip-rule:evenodd;fill:#FFFFFF;stroke:#000000;stroke-width:7.6838;stroke-miterlimit:10;}
	.st4{fill:#00B53E;}
	.st5{fill:#6C3506;}
	.st6{opacity:0.5;}
	.st7{fill:none;stroke:#FFFFFF;stroke-width:80;stroke-miterlimit:10;}
	.st8{fill:url(#SVGID_1_);}
	.st9{fill:url(#SVGID_2_);}
	.st10{fill:url(#SVGID_3_);}
	.st11{fill:#B3B3B3;}
	.st12{fill-rule:evenodd;clip-rule:evenodd;fill:#FFFFFF;stroke:#000000;stroke-width:16;stroke-miterlimit:10;}
	.st13{fill:none;stroke:#000000;stroke-width:14;stroke-miterlimit:10;}
	.st14{fill:#FFFFFF;stroke:#000000;stroke-width:5;stroke-miterlimit:10;}
	.st15{fill:none;stroke:#000000;stroke-miterlimit:10;}
	.st16{fill:none;stroke:#000000;stroke-width:8.0173;stroke-miterlimit:10;}
	.st17{fill:none;stroke:#000000;stroke-width:3;stroke-miterlimit:10;}
	.st18{fill:url(#SVGID_4_);}
	.st19{fill:none;stroke:#FFFFFF;stroke-width:12;stroke-miterlimit:10;}
	.st20{fill:none;stroke:#FFFFFF;stroke-width:8;stroke-miterlimit:10;}
	.st21{fill:none;stroke:#FFFFFF;stroke-width:6.9689;stroke-miterlimit:10;}
	.st22{fill:#E3E3E3;}
	.st23{fill-rule:evenodd;clip-rule:evenodd;fill:url(#SVGID_5_);}
	.st24{fill-rule:evenodd;clip-rule:evenodd;fill:url(#SVGID_6_);}
	.st25{fill:url(#SVGID_7_);}
	.st26{fill-rule:evenodd;clip-rule:evenodd;fill:url(#SVGID_8_);}
	.st27{fill:none;}
	.st28{fill-rule:evenodd;clip-rule:evenodd;fill:none;stroke:url(#SVGID_9_);stroke-width:60;stroke-miterlimit:10;}
	.st29{fill-rule:evenodd;clip-rule:evenodd;fill:none;stroke:url(#SVGID_10_);stroke-width:60;stroke-miterlimit:10;}
	.st30{fill:url(#SVGID_11_);}
</style>
<rect x="0" y="0" width="2048" height="2048"/>
<polygon class="st2" points="564.4,1748.2 1024.2,1024 626.9,1784.3 "/>
<g>
	<g>
		<path class="st0" d="M1459.5,1394.3c-35.6,0-76.2-4.5-121.2-13.5c-109-21.9-237.9-74.5-363.2-148.1
			C849.9,1159,743.1,1073,674.4,990.4c-56-67.4-74.3-125.6-51.6-163.7c23.8-39.9,88.2-51.6,181.3-33
			c144.5,29,336.1,141.7,427.1,251.1c36.9,44.5,48.8,83.2,33.3,109.1c-16.1,27-58.7,35.1-120,22.9c-93.2-18.7-216.8-91.4-275.5-162
			c-31.7-38.1-29.3-61.4-21.7-74.2c7.9-13.3,28.3-26.9,80.7-16.4c60.4,12.1,140.4,59.2,178.4,105c21.7,26.1,19.7,42.6,14.2,51.8
			c-5.7,9.5-20,19.4-55.6,12.2c-36.5-7.3-82.3-33-109.2-60.6c-4-4.1-3.7-10.8,0.8-14.5l0.8-0.7c3.9-3.3,9.8-3.1,13.4,0.6
			c23.9,24.5,66,48.2,98.4,54.7c22.7,4.6,31.9,0.4,33.6-2.5c1.7-2.8,1-11.8-12.3-27.8c-35.4-42.6-110.1-86.5-166.5-97.9
			c-36.1-7.2-54-1.3-58.7,6.6c-5.7,9.6,1.7,28.4,19.8,50.2c56.1,67.5,174.3,137,263.5,154.9c50.4,10.1,87.1,5.2,98-13.1
			c10.4-17.5-1-48.5-31.5-85.1c-88.4-106.4-274.6-215.8-415.1-244c-82.5-16.6-140.6-8.1-159.3,23.2c-17.7,29.6,0.5,80.5,49.7,139.8
			c138.9,167.1,431.4,339,652,383.3c43.4,8.7,82.6,13,116.7,13c69.4,0,117.9-17.7,138.3-52c13.9-23.3,14.9-53.8,3.1-90.5
			c-12.2-37.9-37.4-80.6-75.1-127.1c-3.4-4.2-2.8-10.3,1.4-13.8l0.8-0.7c4.2-3.5,10.5-2.9,14,1.4c80.9,99.9,107,185.4,73.7,241.4
			C1590.8,1373.2,1537,1394.3,1459.5,1394.3z"/>
	</g>
	<g>
		<path class="st0" d="M1117.6,1361.8c-2.3,4.9-8.2,7.1-13.1,4.7c-156.8-74.4-306.3-172.5-421.7-276.8
			C563.9,982.3,495,880.4,488.7,802.9c-2.8-34.1,9.5-61.6,35.5-79.7c35.3-24.5,94.8-31.1,172.3-19c77.6,12.1,169.4,42.2,265.5,87.2
			c102.8,48.1,201,112.2,276.6,180.5c76.8,69.4,121.3,135.5,125.4,186.1c1.9,23.2-6.5,42-24.3,54.4c-23.4,16.2-62.4,20.7-113,12.8
			c-50-7.8-109.1-27.2-170.9-56.1c-140-65.5-253.9-169.9-259.4-237.7c-1.3-16.3,4.6-29.5,17.1-38.2c31.5-21.9,102.6-11.4,185.5,27.4
			c42.6,20,83.4,46.6,114.8,74.9c23.1,20.9,51.1,51.7,53.4,80.3c0.9,11.6-3.5,21.5-12.6,27.8c-21.6,15-67.3,8.6-122.4-17.2
			c-51.1-23.9-107-67.9-109.8-102.4c-0.7-8.8,2.7-16.4,9.6-21.2c13.6-9.5,40.4-7,72.7,6.5c5.2,2.2,7.5,8.2,5.1,13.3l-0.5,1
			c-2.2,4.8-7.8,7-12.7,4.9c-29.5-12.3-47.8-12.1-52.8-8.6c-0.5,0.4-0.9,0.6-0.8,2.4c1.6,19.4,42.2,59.2,97.8,85.2
			c53,24.8,89.8,27.2,101.7,19c2.1-1.4,4.1-3.6,3.7-9c-2.7-32.6-66.1-95.8-156.2-138c-85.3-39.9-144.2-43.4-164.7-29.1
			c-6.4,4.4-9,10.6-8.3,19.4c2.2,27.6,29.5,66.9,74.7,107.8c47.1,42.6,108.5,82.6,172.8,112.7c135.4,63.4,229.8,68.3,263.2,45
			c11.7-8.1,16.7-19.7,15.4-35.6c-3.6-44.6-46.9-107.4-118.6-172.3c-74.1-66.9-170.4-129.8-271.4-177.1
			c-94.3-44.1-184.2-73.7-259.9-85.4c-71.1-11-126.9-5.5-157.2,15.6c-19.8,13.8-28.8,34.2-26.6,60.9c2.9,36,21.1,78.4,53.9,126
			c32.3,46.8,77.2,96.3,133.4,147.1c114,103,261.6,199.9,416.6,273.4c4.9,2.3,7,8.2,4.7,13.1L1117.6,1361.8z"/>
	</g>
	<g>
		<path class="st0" d="M1365.9,1313.3c-46.2,0-104.2-11.5-169.7-34.2c-98.3-34-202.6-88.9-293.6-154.8
			c-110.3-79.8-174.2-163.7-166.7-218.8c2.1-15.6,11-36.5,41.5-47.8c32.7-12.2,86.3-6.6,150.9,15.8c63.3,21.9,130.4,57.2,188.9,99.6
			c71.7,51.9,113.2,106.9,108.2,143.6c-1.5,11-7.7,25.7-29,33.6c-43.8,16.3-140.9-16.3-221-74.3c-47.7-34.5-74.2-70.2-70.8-95.4
			c1.5-11.4,9-20.1,21-24.5c32.5-12.1,99.2,14.9,144.9,48c15.2,11,50.2,39.4,46.8,64.6c-0.4,2.9-1.3,5.7-2.7,8.1
			c-4.1,7.2-14.8,6.1-17.7-1.7l-0.7-1.9c-0.8-2.3-0.5-4.7,0.4-6.9c0.1-0.1,0.1-0.3,0.1-0.4c0.8-6-8.9-23.6-38.4-44.9
			c-49.5-35.8-105.8-52.7-125.4-45.4c-6.1,2.3-7.2,5.4-7.6,7.8c-1.8,13.4,16.9,42.9,62.3,75.7c80,57.9,168.8,83.8,201.5,71.6
			c12.6-4.7,14.9-11.9,15.6-16.9c3.2-23.4-26.4-70.8-99.8-123.9c-56.9-41.2-122.1-75.5-183.5-96.7c-59.2-20.4-109.1-26.2-136.8-15.9
			c-16.9,6.3-26.1,16.5-28.1,31.1c-2.9,21.3,9.8,51.7,35.7,85.5c28.2,36.7,70.5,76,122.6,113.6c89.4,64.7,191.7,118.6,288.2,151.9
			c93.7,32.4,173.1,41.4,217.8,24.8c28.3-10.5,44.3-28.4,47.7-53.3c4.7-34.9-15.5-83.9-56.9-137.9c-44.3-57.8-111-119.6-192.7-178.7
			C1078.7,813,918.3,728.4,767,676.1c-73.3-25.3-140.3-41.6-199.3-48.4c-55.4-6.4-101.1-4.2-136.1,6.7c-5,1.5-10.3-1.1-12.2-6
			l-0.4-1c-2-5.3,0.9-11.2,6.3-12.9c77.4-23.9,200.4-9.2,348.4,41.9c153.1,52.9,315.5,138.5,457.2,241
			c83.3,60.3,151.5,123.6,197,182.9c45.5,59.3,66.6,112.4,61.1,153.4c-4.4,32.6-25.6,56.8-61.1,70
			C1410.9,1310.2,1390,1313.3,1365.9,1313.3z"/>
	</g>
</g>
<ellipse transform="matrix(0.5 -0.866 0.866 0.5 -377.9903 1398.9619)" class="st2" cx="1022.5" cy="1026.8" rx="18.7" ry="75.8"/>
<polygon class="st2" points="1484,299.8 1024.2,1024 1421.4,263.7 "/>
</svg>
